<?xml version="1.0" standalone="no"?>
<!DOCTYPE svg PUBLIC "-//W3C//DTD SVG 20010904//EN"
 "http://www.w3.org/TR/2001/REC-SVG-20010904/DTD/svg10.dtd">
<svg version="1.0" xmlns="http://www.w3.org/2000/svg"
 width="2200.000000pt" height="1238.000000pt" viewBox="0 0 2200.000000 1238.000000"
 preserveAspectRatio="xMidYMid meet">

<g transform="translate(0.000000,1238.000000) scale(0.100000,-0.100000)" fill="#fff" stroke="none">
<path d="M8551 9779 c-4 -13 -46 -139 -91 -279 -45 -140 -87 -261 -92 -267 -8
-10 -84 -13 -297 -15 -182 -2 -286 -7 -286 -13 0 -5 103 -84 227 -175 125 -91
230 -168 233 -171 3 -3 -36 -131 -86 -284 -50 -152 -87 -281 -82 -286 4 -4
116 70 247 166 l239 174 31 -22 c17 -12 125 -90 241 -174 115 -84 213 -149
217 -145 4 4 -33 131 -82 282 -49 151 -90 278 -90 282 0 4 106 84 236 179 132
96 232 175 227 180 -5 5 -138 10 -297 11 l-289 3 -91 282 c-50 155 -95 285
-98 289 -4 4 -12 -4 -17 -17z"/>
<path d="M10871 9777 c-5 -14 -47 -139 -92 -279 -45 -139 -86 -259 -91 -265
-8 -10 -84 -13 -297 -15 -182 -2 -286 -7 -286 -13 1 -5 104 -85 230 -177 127
-92 230 -173 229 -181 -1 -7 -40 -133 -88 -281 -48 -148 -84 -272 -79 -277 4
-4 116 71 247 166 l239 174 46 -33 c335 -244 437 -314 443 -308 4 4 -33 131
-82 282 -49 151 -90 278 -90 282 0 4 106 84 236 179 132 96 232 175 227 180
-5 5 -139 10 -297 11 l-289 3 -92 283 c-50 155 -95 285 -98 288 -4 4 -11 -5
-16 -19z"/>
<path d="M13193 9778 c-5 -7 -47 -130 -93 -273 -46 -143 -88 -266 -93 -272 -7
-10 -79 -13 -298 -13 -158 0 -290 -4 -293 -8 -3 -4 103 -86 235 -182 139 -101
238 -178 235 -185 -39 -102 -175 -549 -169 -555 4 -5 116 70 247 165 l239 174
46 -33 c353 -257 436 -315 442 -309 5 5 -32 132 -82 283 -49 151 -87 280 -85
286 2 5 108 86 236 178 128 94 228 172 223 177 -5 5 -139 10 -298 11 l-289 3
-90 277 c-50 152 -94 280 -97 283 -3 3 -10 0 -16 -7z"/>
<path d="M3546 7395 c-60 -21 -88 -55 -93 -112 -9 -88 24 -126 145 -173 40
-16 73 -36 86 -53 l21 -28 3 -1360 c2 -1144 0 -1364 -12 -1392 -12 -29 -26
-39 -107 -73 -117 -50 -143 -80 -137 -162 5 -63 41 -107 99 -122 23 -6 276 -9
675 -8 l639 3 0 1745 0 1745 -640 2 c-527 2 -647 0 -679 -12z"/>
<path d="M5068 7405 c-5 -5 -8 -68 -8 -142 0 -98 3 -135 13 -137 99 -27 130
-41 169 -76 53 -46 92 -126 108 -220 8 -46 10 -406 8 -1210 l-3 -1145 -23 -63
c-44 -123 -87 -166 -207 -207 l-60 -21 0 -134 0 -135 100 1 c250 3 553 114
786 289 104 78 277 256 345 355 138 201 221 409 271 675 21 114 28 396 14 556
-50 549 -222 957 -524 1246 -191 182 -399 290 -659 343 -107 22 -318 38 -330
25z"/>
<path d="M9275 7399 c-17 -4 -46 -24 -65 -44 -31 -32 -34 -41 -34 -91 1 -50 5
-60 36 -90 21 -22 61 -45 109 -62 126 -47 114 108 117 -1406 1 -805 -1 -1327
-7 -1370 -12 -85 -29 -104 -124 -135 -124 -41 -169 -142 -105 -233 41 -59 41
-59 743 -56 l640 3 0 1745 0 1745 -640 2 c-352 1 -654 -3 -670 -8z"/>
<path d="M10795 7398 c-3 -8 -4 -72 -3 -142 l3 -129 46 -11 c146 -37 218 -140
240 -344 6 -64 9 -471 6 -1182 -3 -1181 -1 -1131 -60 -1246 -33 -65 -87 -110
-157 -131 -30 -9 -61 -21 -68 -26 -9 -7 -12 -44 -10 -141 l3 -131 95 1 c230 2
534 108 748 262 477 340 717 887 673 1527 -31 446 -131 792 -306 1062 -256
393 -632 614 -1087 639 -98 6 -118 5 -123 -8z"/>
<path d="M13642 7398 c-5 -7 -22 -67 -37 -133 l-27 -120 231 -1009 c128 -556
229 -1016 227 -1023 -4 -10 -63 -13 -275 -13 -247 0 -271 -1 -279 -17 -16 -30
-64 -252 -57 -263 4 -6 117 -10 335 -10 303 0 330 -1 338 -17 6 -10 33 -110
62 -223 73 -289 71 -300 -70 -392 -48 -32 -68 -52 -78 -80 -29 -76 13 -155 94
-177 54 -15 1404 -15 1458 0 22 6 52 24 68 39 23 24 28 37 28 79 0 42 -5 56
-32 86 -17 20 -57 49 -88 65 -70 36 -104 75 -125 143 -8 28 -176 732 -373
1562 l-357 1510 -516 3 c-406 2 -519 -1 -527 -10z"/>
<path d="M15703 7391 c-50 -23 -74 -57 -80 -114 -5 -49 19 -96 64 -123 78 -48
95 -62 117 -94 12 -19 190 -432 395 -917 l372 -882 -3 -485 c-3 -567 7 -520
-124 -573 -101 -42 -134 -76 -134 -139 0 -61 29 -107 84 -133 43 -21 50 -21
769 -19 715 3 726 3 753 24 50 37 69 72 69 124 0 42 -5 54 -34 84 -19 20 -51
41 -70 47 -74 24 -122 52 -136 80 -13 24 -15 122 -15 633 l0 605 -299 683
c-164 376 -306 707 -315 737 -30 103 -18 135 70 190 77 48 104 88 104 153 0
62 -40 111 -104 127 -31 8 -261 11 -743 11 -663 0 -700 -1 -740 -19z"/>
<path d="M17755 7395 c-22 -8 -52 -28 -67 -45 -23 -25 -28 -39 -28 -85 0 -74
27 -103 160 -168 94 -47 107 -56 127 -96 27 -52 31 -151 10 -222 -8 -24 -78
-186 -156 -360 l-141 -317 71 -158 c39 -88 74 -163 78 -167 4 -4 13 -2 18 5 6
7 113 238 238 513 125 275 243 531 263 569 58 111 110 159 242 225 141 70 164
97 157 180 -3 47 -9 59 -40 87 -19 18 -52 37 -74 43 -62 17 -808 14 -858 -4z"/>
<path d="M13461 6740 c-6 -14 -135 -479 -286 -1035 -151 -555 -287 -1046 -301
-1090 -36 -109 -104 -239 -160 -303 -38 -44 -67 -63 -160 -108 -62 -29 -120
-64 -128 -76 -9 -13 -16 -43 -16 -71 0 -44 4 -54 38 -87 21 -21 55 -43 77 -49
26 -7 176 -11 430 -11 359 0 393 2 431 19 54 25 74 55 74 111 0 72 -24 100
-138 158 -57 30 -113 66 -130 86 -42 49 -58 123 -44 215 6 39 112 443 237 898
l227 826 -58 255 c-32 140 -64 261 -70 270 -11 15 -13 14 -23 -8z"/>
<path d="M7075 5998 c-3 -7 -4 -171 -3 -363 l3 -350 820 0 820 0 0 360 0 360
-818 3 c-651 2 -819 0 -822 -10z"/>
</g>
</svg>
